#!OML:ASF F:\twosubjects\two\Thursday\Session 1\Rory.ASF
:FULLY-SPECIFIED
:DEGREES
454
root 7.77515 10.3549 12.5673 150.278 -14.3806 187.271
lowerback 38.7403 8.20729 -2.02169
upperback 18.2752 2.95547 -1.04005
thorax 1.13541 -1.41296 -1.04699
lowerneck -4.70192 -11.1299 -13.3862
upperneck -12.1761 -14.4955 24.8037
head 0.311335 -8.0821 9.30097
rclavicle 1.11319e-014 -3.49861e-014
rhumerus -1.18123 21.8655 -69.454
rradius 69.4203
rwrist -1.89891
rhand -34.2424 39.3328
rfingers 7.12502
rthumb -7.41352 9.48266
lclavicle 1.11319e-014 -3.49861e-014
lhumerus 6.13577 -27.3081 48.6524
lradius 92.2549
lwrist -6.21188
lhand -9.46071 16.662
lfingers 7.12502
lthumb 16.5029 45.9802
rfemur -49.3501 -0.652604 -7.74013
rtibia 80.0559
rfoot 10.1838 -6.16192
rtoes -4.03115
lfemur -55.9875 19.3261 9.50784
ltibia 70.6287
lfoot 22.0341 2.04856
ltoes 16.8959
455
root 7.76813 10.3294 12.5605 149.968 -14.2621 187.428
lowerback 38.5746 8.43121 -2.0404
upperback 18.4142 3.20139 -0.984094
thorax 1.33647 -1.31726 -1.05899
lowerneck -4.60741 -11.2337 -13.3143
upperneck -12.2102 -14.6529 25.0222
head 0.333641 -8.18254 9.34736
rclavicle 3.97569e-014 3.97569e-014
rhumerus -1.68757 21.3679 -70.1631
rradius 69.2793
rwrist -0.961664
rhand -34.4732 39.1485
rfingers 7.12502
rthumb -7.63634 9.30641
lclavicle 3.97569e-014 3.97569e-014
lhumerus 7.02015 -27.3392 48.6073
lradius 91.7776
lwrist -6.05478
lhand -8.28514 16.9357
lfingers 7.12502
lthumb 17.6345 46.156
rfemur -49.2733 -0.383967 -7.5572
rtibia 80.2577
rfoot 9.28999 -5.52836
rtoes -2.73502
lfemur -55.8964 19.5817 9.71718
ltibia 70.756
lfoot 22.2473 1.72369
ltoes 17.5357
456
root 7.76037 10.3144 12.5681 149.551 -13.9586 188.056
lowerback 38.6018 8.37228 -1.425
upperback 18.4201 3.33674 -0.974206
thorax 1.37247 -1.207 -1.40526
lowerneck -4.56427 -11.3221 -13.3413
upperneck -11.8514 -14.8104 25.269
head 0.48766 -8.24603 9.39689
rclavicle 2.06736e-014 -6.36111e-015
rhumerus -2.06662 21.1038 -70.8926
rradius 69.0263
rwrist -0.372111
rhand -34.5789 38.1245
rfingers 7.12502
rthumb -7.73839 8.28614
lclavicle 2.06736e-014 -6.36111e-015
lhumerus 7.46969 -27.484 48.516
lradius 91.5333
lwrist -5.68711
lhand -7.71553 17.3113
lfingers 7.12502
lthumb 18.1825 46.4814
rfemur -49.0744 0.089983 -6.81254
rtibia 80.3755
rfoot 8.27767 -5.01075
rtoes -4.19721
lfemur -55.8179 19.7735 10.4326
ltibia 70.8386
lfoot 22.3278 1.36128
ltoes 17.0792
457
root 7.75488 10.3081 12.5812 149.264 -13.7463 188.47
lowerback 38.5653 8.35071 -1.07988
upperback 18.381 3.45316 -0.976426
thorax 1.36411 -1.11493 -1.61824
lowerneck -4.45153 -11.3762 -13.6163
upperneck -11.3289 -14.9228 25.5263
head 0.689969 -8.26356 9.49304
rclavicle 3.81667e-014 3.97569e-014
rhumerus -1.74039 21.4592 -70.4756
rradius 68.5657
rwrist -0.640904
rhand -34.9105 37.3822
rfingers 7.12502
rthumb -8.05841 7.55581
lclavicle 3.81667e-014 3.97569e-014
lhumerus 7.37106 -27.6339 48.7178
lradius 91.5018
lwrist -5.60568
lhand -7.73234 17.0129
lfingers 7.12502
lthumb 18.1664 46.1845
rfemur -48.9143 0.426514 -6.28809
rtibia 80.4367
rfoot 7.96656 -4.44909
rtoes 0.279751
lfemur -55.7147 19.8095 10.9311
ltibia 70.8371
lfoot 22.3142 1.27041
ltoes 16.8512
458
root 7.75289 10.3168 12.6024 149.012 -13.6058 188.673
lowerback 38.437 8.51687 -1.13908
upperback 18.3938 3.66455 -0.833117
thorax 1.40847 -1.02238 -1.50202
lowerneck -4.17166 -11.4628 -13.9029
upperneck -11.1009 -15.0581 25.6605
head 0.772786 -8.31427 9.57348
rclavicle 1.11319e-014 -2.54444e-014
rhumerus -1.31822 21.8769 -69.3918
rradius 68.3689
rwrist -1.60874
rhand -34.733 37.6516
rfingers 7.12502
rthumb -7.88706 7.81872
lclavicle 1.11319e-014 -2.54444e-014
lhumerus 7.43149 -27.566 49.193
lradius 91.27
lwrist -5.83596
lhand -7.54822 15.9479
lfingers 7.12502
lthumb 18.3435 45.103
rfemur -48.7273 0.64381 -5.96304
rtibia 80.4424
rfoot 7.51762 -4.34762
rtoes 3.43375
lfemur -55.4608 19.665 11.2182
ltibia 70.7514
lfoot 22.3621 1.34041
ltoes 16.9368
459
root 7.75617 10.3406 12.6349 148.955 -13.5412 188.677
lowerback 38.1819 8.74778 -1.44835
upperback 18.4066 3.89084 -0.724296
thorax 1.475 -0.932343 -1.29628
lowerneck -3.93449 -11.5833 -14.2083
upperneck -11.0137 -15.2403 25.9536
head 0.852255 -8.40739 9.70491
rclavicle -6.99722e-014 2.54444e-014
rhumerus -1.04583 21.9554 -68.7828
rradius 68.0795
rwrist -2.44936
rhand -33.9245 38.5901
rfingers 7.12502
rthumb -7.10665 8.72941
lclavicle -6.99722e-014 2.54444e-014
lhumerus 7.87272 -27.3179 49.5033
lradius 90.9765
lwrist -5.61709
lhand -6.73712 15.2621
lfingers 7.12502
lthumb 19.1236 44.3419
rfemur -48.7596 0.811944 -5.83787
rtibia 80.4112
rfoot 6.24629 -4.49783
rtoes 12.2462
lfemur -55.2418 19.5559 11.187
ltibia 70.5602
lfoot 22.4125 1.38158
ltoes 16.4571
460
root 7.75203 10.3224 12.6287 148.9 -13.4527 188.675
lowerback 37.9908 8.94045 -1.6704
upperback 18.3599 4.10226 -0.755386
thorax 1.47102 -0.827979 -1.27633
lowerneck -3.63058 -11.6249 -14.2262
upperneck -10.9387 -15.3329 26.1691
head 0.866878 -8.47082 9.78291
rclavicle -9.22361e-014 2.54444e-014
rhumerus -0.82792 21.8818 -68.8047
rradius 67.4148
rwrist -2.73741
rhand -33.749 38.8076
rfingers 7.12502
rthumb -6.93725 8.94126
lclavicle -9.22361e-014 2.54444e-014
lhumerus 8.32427 -27.4901 49.4988
lradius 90.6935
lwrist -5.8767
lhand -6.92524 16.0095
lfingers 7.12502
lthumb 18.9427 45.1071
rfemur -48.9518 0.832099 -5.74557
rtibia 80.5495
rfoot 5.4488 -3.60132
rtoes 12.4225
lfemur -55.2528 19.7415 11.2312
ltibia 70.5923
lfoot 22.4908 1.20781
ltoes 16.0369
